<?xml version="1.0" encoding="UTF-8"?>
<svg width="192px" height="8px" viewBox="0 0 192 8" version="1.1" xmlns="http://www.w3.org/2000/svg" xmlns:xlink="http://www.w3.org/1999/xlink">
    <!-- Generator: Sketch 51.2 (57519) - http://www.bohemiancoding.com/sketch -->
    <title>decor-line-top</title>
    <desc>Created with Sketch.</desc>
    <defs></defs>
    <g id="Page-1" stroke="none" stroke-width="1" fill="none" fill-rule="evenodd">
        <g id="decor-line-top" fill="#F08058" fill-rule="nonzero">
            <path d="M67.5,7.6 C65.5,7.6 63.6,6.8 62.2,5.3 L61.9,5 C60.9,3.9 59.5,3.3 58,3.3 C56.5,3.3 55.1,3.9 54.1,5 L53.8,5.3 C52.4,6.8 50.5,7.6 48.5,7.6 C46.5,7.6 44.6,6.8 43.2,5.3 L43,5.1 C42,4 40.5,3.4 39,3.4 C37.5,3.4 36,4 35,5.1 C33.6,6.6 31.6,7.5 29.5,7.5 C27.4,7.5 25.5,6.7 24,5.1 C21.6,2.6 17.8,2.3 15,4.3 C12.2,6.3 9,7.4 5.6,7.4 L1,7.4 C0.4,7.4 0,7 0,6.4 C0,5.8 0.4,5.4 1,5.4 L5.6,5.4 C8.6,5.4 11.4,4.5 13.9,2.7 C17.5,0.1 22.5,0.5 25.5,3.7 C26.6,4.8 28,5.4 29.5,5.4 C31,5.4 32.5,4.8 33.5,3.7 C35,2.2 36.9,1.4 39,1.4 C41.1,1.4 43,2.2 44.5,3.7 L44.6,3.8 C45.6,4.9 47,5.5 48.5,5.5 C50,5.5 51.4,4.9 52.4,3.8 L52.7,3.5 C54.1,2.1 56,1.3 58,1.3 C60,1.3 61.9,2.1 63.3,3.6 L63.6,3.9 C64.6,5 66,5.6 67.5,5.6 C69,5.6 70.4,5 71.4,3.9 L71.7,3.6 C73.1,2.1 75,1.3 77,1.3 C79,1.3 80.9,2.1 82.3,3.6 L82.4,3.7 C83.5,4.8 84.9,5.4 86.4,5.4 C87.9,5.4 89.4,4.8 90.4,3.7 C92,2.2 93.9,1.4 96,1.4 C98.1,1.4 100,2.2 101.5,3.7 L101.6,3.9 C102.6,5 104,5.6 105.5,5.6 C107,5.6 108.3,5 109.4,3.9 L109.7,3.6 C111.1,2.1 113,1.3 115,1.3 C117,1.3 118.9,2.1 120.3,3.6 L120.4,3.7 C121.5,4.8 122.9,5.4 124.4,5.4 C125.9,5.4 127.4,4.8 128.4,3.7 C129.8,2.2 131.8,1.3 133.9,1.3 C136,1.3 137.9,2.1 139.4,3.7 C140.5,4.8 141.9,5.4 143.4,5.4 C144.9,5.4 146.4,4.8 147.4,3.7 C148.8,2.2 150.8,1.3 152.9,1.3 C155,1.3 156.9,2.1 158.4,3.7 C159.5,4.8 160.9,5.4 162.4,5.4 C163.9,5.4 165.4,4.8 166.4,3.7 C169.5,0.5 174.4,-1.33226763e-15 178,2.7 C180.4,4.5 183.3,5.4 186.3,5.4 L190.9,5.4 C191.5,5.4 191.9,5.8 191.9,6.4 C191.9,7 191.5,7.4 190.9,7.4 L186.3,7.4 C182.9,7.4 179.6,6.3 176.9,4.3 C174.1,2.3 170.3,2.6 167.9,5.1 C166.5,6.6 164.5,7.5 162.4,7.5 C160.3,7.5 158.4,6.7 156.9,5.1 C155.8,4 154.4,3.4 152.9,3.4 C151.4,3.4 149.9,4 148.9,5.1 C147.5,6.6 145.5,7.5 143.4,7.5 C141.3,7.5 139.4,6.7 137.9,5.1 C136.8,4 135.4,3.4 133.9,3.4 C132.4,3.4 130.9,4 129.9,5.1 C128.5,6.6 126.5,7.5 124.4,7.5 C122.3,7.5 120.4,6.7 118.9,5.2 L118.9,5 C117.9,3.9 116.5,3.3 115,3.3 C113.5,3.3 112.1,3.9 111.1,5 L110.8,5.3 C109.4,6.8 107.5,7.6 105.5,7.6 C103.5,7.6 101.6,6.8 100.2,5.3 L100,5.1 C99,4 97.6,3.4 96,3.4 C94.5,3.4 93,4 92,5.1 C90.6,6.6 88.6,7.5 86.5,7.5 C84.4,7.5 82.5,6.7 81,5.1 L80.9,5 C79.9,3.9 78.5,3.3 77,3.3 C75.5,3.3 74.1,3.9 73.1,5 L72.8,5.3 C71.4,6.7 69.5,7.6 67.5,7.6 Z" id="Shape"></path>
        </g>
    </g>
</svg>