<?xml version="1.0" encoding="UTF-8"?>
<svg width="192px" height="7px" viewBox="0 0 192 7" version="1.1" xmlns="http://www.w3.org/2000/svg" xmlns:xlink="http://www.w3.org/1999/xlink">
    <!-- Generator: Sketch 51.2 (57519) - http://www.bohemiancoding.com/sketch -->
    <title>decor-line-bottom</title>
    <desc>Created with Sketch.</desc>
    <defs></defs>
    <g id="Page-1" stroke="none" stroke-width="1" fill="none" fill-rule="evenodd">
        <g id="decor-line-bottom" fill="#F08058" fill-rule="nonzero">
            <path d="M72.8,2.3 L73.1,2.6 C74.1,3.7 75.5,4.3 77,4.3 C78.5,4.3 79.9,3.7 80.9,2.6 L81,2.5 C82.5,0.9 84.4,0.1 86.5,0.1 C88.6,0.1 90.6,1 92,2.5 C93,3.6 94.5,4.2 96,4.2 C97.6,4.2 99,3.6 100,2.5 L100.2,2.3 C101.6,0.8 103.5,0 105.5,0 C107.5,0 109.4,0.8 110.8,2.3 L111.1,2.6 C112.1,3.7 113.5,4.3 115,4.3 C116.5,4.3 117.9,3.7 118.9,2.6 L118.9,2.4 C120.4,0.9 122.3,0.1 124.4,0.1 C126.5,0.1 128.5,1 129.9,2.5 C130.9,3.6 132.4,4.2 133.9,4.2 C135.4,4.2 136.8,3.6 137.9,2.5 C139.4,0.9 141.3,0.1 143.4,0.1 C145.5,0.1 147.5,1 148.9,2.5 C149.9,3.6 151.4,4.2 152.9,4.2 C154.4,4.2 155.8,3.6 156.9,2.5 C158.4,0.9 160.3,0.1 162.4,0.1 C164.5,0.1 166.5,1 167.9,2.5 C170.3,5 174.1,5.3 176.9,3.3 C179.6,1.3 182.9,0.2 186.3,0.2 L190.9,0.2 C191.5,0.2 191.9,0.6 191.9,1.2 C191.9,1.8 191.5,2.2 190.9,2.2 L186.3,2.2 C183.3,2.2 180.4,3.1 178,4.9 C174.4,7.6 169.5,7.1 166.4,3.9 C165.4,2.8 163.9,2.2 162.4,2.2 C160.9,2.2 159.5,2.8 158.4,3.9 C156.9,5.5 155,6.3 152.9,6.3 C150.8,6.3 148.8,5.4 147.4,3.9 C146.4,2.8 144.9,2.2 143.4,2.2 C141.9,2.2 140.5,2.8 139.4,3.9 C137.9,5.5 136,6.3 133.9,6.3 C131.8,6.3 129.8,5.4 128.4,3.9 C127.4,2.8 125.9,2.2 124.4,2.2 C122.9,2.2 121.5,2.8 120.4,3.9 L120.3,4 C118.9,5.5 117,6.3 115,6.3 C113,6.3 111.1,5.5 109.7,4 L109.4,3.7 C108.3,2.6 107,2 105.5,2 C104,2 102.6,2.6 101.6,3.7 L101.5,3.9 C100,5.4 98.1,6.2 96,6.2 C93.9,6.2 92,5.4 90.4,3.9 C89.4,2.8 87.9,2.2 86.4,2.2 C84.9,2.2 83.5,2.8 82.4,3.9 L82.3,4 C80.9,5.5 79,6.3 77,6.3 C75,6.3 73.1,5.5 71.7,4 L71.4,3.7 C70.4,2.6 69,2 67.5,2 C66,2 64.6,2.6 63.6,3.7 L63.3,4 C61.9,5.5 60,6.3 58,6.3 C56,6.3 54.1,5.5 52.7,4.1 L52.4,3.8 C51.4,2.7 50,2.1 48.5,2.1 C47,2.1 45.6,2.7 44.6,3.8 L44.5,3.9 C43,5.4 41.1,6.2 39,6.2 C36.9,6.2 35,5.4 33.5,3.9 C32.5,2.8 31,2.2 29.5,2.2 C28,2.2 26.6,2.8 25.5,3.9 C22.5,7.1 17.5,7.5 13.9,4.9 C11.4,3.1 8.6,2.2 5.6,2.2 L1,2.2 C0.4,2.2 0,1.8 0,1.2 C0,0.6 0.4,0.2 1,0.2 L5.6,0.2 C9,0.2 12.2,1.3 15,3.3 C17.8,5.3 21.6,5 24,2.5 C25.5,0.9 27.4,0.1 29.5,0.1 C31.6,0.1 33.6,1 35,2.5 C36,3.6 37.5,4.2 39,4.2 C40.5,4.2 42,3.6 43,2.5 L43.2,2.3 C44.6,0.8 46.5,0 48.5,0 C50.5,0 52.4,0.8 53.8,2.3 L54.1,2.6 C55.1,3.7 56.5,4.3 58,4.3 C59.5,4.3 60.9,3.7 61.9,2.6 L62.2,2.3 C63.6,0.8 65.5,0 67.5,0 C69.5,0 71.4,0.9 72.8,2.3 Z" id="Shape"></path>
        </g>
    </g>
</svg>