<?xml version="1.0" encoding="UTF-8"?>
<svg width="42px" height="42px" viewBox="0 0 42 42" version="1.1" xmlns="http://www.w3.org/2000/svg" xmlns:xlink="http://www.w3.org/1999/xlink">
    <!-- Generator: Sketch 51.2 (57519) - http://www.bohemiancoding.com/sketch -->
    <title>facebook</title>
    <desc>Created with Sketch.</desc>
    <defs></defs>
    <g id="Page-1" stroke="none" stroke-width="1" fill="none" fill-rule="evenodd">
        <g id="facebook" fill="#6ECDBE" fill-rule="nonzero">
            <path d="M21,0 C9.4,0 0,9.4 0,21 C0,32.6 9.4,42 21,42 C32.6,42 42,32.6 42,21 C42,9.4 32.6,0 21,0 Z M26.8,12.9 L23.8,12.9 C23.3,12.9 22.6,13.2 22.6,14.2 L22.6,17 L26.8,17 L26.3,21.8 L22.5,21.8 L22.5,35.5 L16.8,35.5 L16.8,21.8 L14.1,21.8 L14.1,17 L16.8,17 L16.8,13.9 C16.8,11.7 17.9,8.2 22.5,8.2 L26.7,8.2 L26.8,12.9 Z" id="Shape"></path>
        </g>
    </g>
</svg>