<svg width="42px" height="42px" viewBox="0 0 42 42" version="1.1" xmlns="http://www.w3.org/2000/svg" xmlns:xlink="http://www.w3.org/1999/xlink">
    <g id="Page-1" stroke="none" stroke-width="1" fill="none" fill-rule="evenodd">
        <g id="google-plus" fill="#6ECDBE" fill-rule="nonzero">
            <path d="M21,0 C9.4,0 0,9.4 0,21 C0,32.6 9.4,42 21,42 C32.6,42 42,32.6 42,21 C42,9.4 32.6,0 21,0 Z M22.5,27.6 C20.4,30.4 16.4,31.2 13.2,30.1 C10.4,29.2 8.3,26.7 7.6,23.9 C7.4,23.3 7.4,22.6 7.4,21.9 C7.2,17.4 11.1,13.3 15.6,13.3 C17.9,13.1 20.1,14 21.8,15.4 C21.1,16.2 20.4,16.9 19.6,17.7 C18.1,16.8 16.3,16.1 14.5,16.7 C11.6,17.5 9.9,20.9 11,23.7 C11.2,24.4 11.6,25.1 12.1,25.6 C13.6,27.2 16.1,27.9 18.2,27 C19.6,26.5 20.6,25.1 21,23.7 C19.4,23.7 17.7,23.7 16,23.6 C16,22.6 16,21.6 16,20.6 C18.8,20.6 21.5,20.6 24.3,20.6 C24.4,23.1 24,25.7 22.5,27.6 Z M34.6,20.7 C34.6,21.5 34.6,22.3 34.6,23.2 C33.8,23.2 32.9,23.2 32.1,23.2 C32.1,24 32.1,24.8 32.1,25.7 C31.3,25.7 30.5,25.7 29.6,25.7 C29.6,24.9 29.6,24.1 29.6,23.2 C28.8,23.2 28,23.2 27.1,23.2 C27.1,22.4 27.1,21.6 27.1,20.7 C27.9,20.7 28.7,20.7 29.6,20.7 C29.6,19.9 29.6,19.1 29.6,18.2 C30.4,18.2 31.2,18.2 32.1,18.2 C32.1,19 32.1,19.8 32.1,20.7 C32.9,20.7 33.7,20.7 34.6,20.7 Z" id="Shape"></path>
        </g>
    </g>
</svg>
