<svg width="32px" height="32px" viewBox="0 0 32 32" version="1.1" xmlns="http://www.w3.org/2000/svg" xmlns:xlink="http://www.w3.org/1999/xlink">
    <g id="Page-1" stroke="none" stroke-width="1" fill="none" fill-rule="evenodd">
        <g id="in_®™Ѓ_1" fill="#6ECDBE" fill-rule="nonzero">
            <path d="M16,0 C7.2,0 0,7.2 0,16 C0,24.8 7.2,32 16,32 C24.8,32 32,24.8 32,16 C32,7.2 24.8,0 16,0 Z M13.2,21.7 L10.2,21.7 L10.2,12.7 L13.2,12.7 L13.2,21.7 Z M12.9,11 C12.6,11.3 12.2,11.4 11.7,11.4 C11.2,11.4 10.8,11.3 10.5,11 C10.2,10.7 10,10.3 10,9.9 C10,9.5 10.2,9.1 10.5,8.8 C10.8,8.5 11.2,8.4 11.7,8.4 C12.2,8.4 12.6,8.5 12.9,8.8 C13.2,9.1 13.4,9.5 13.4,9.9 C13.4,10.3 13.2,10.7 12.9,11 Z M24,21.7 L21,21.7 L21,16.9 C21,16.3 20.9,15.8 20.6,15.4 C20.3,15 20,14.9 19.4,14.9 C19,14.9 18.7,15 18.4,15.2 C18.1,15.4 17.9,15.7 17.8,16 C17.7,16.2 17.7,16.4 17.7,16.7 L17.7,21.7 L14.7,21.7 C14.7,19.3 14.7,17.3 14.7,15.8 C14.7,14.3 14.7,13.4 14.7,13.1 L14.7,12.7 L17.7,12.7 L17.7,14 C17.8,13.8 17.9,13.7 18.1,13.5 C18.2,13.4 18.4,13.2 18.6,13 C18.8,12.8 19.1,12.7 19.4,12.6 C19.7,12.5 20.1,12.5 20.4,12.5 C21.4,12.5 22.3,12.8 22.9,13.5 C23.5,14.2 23.8,15.2 23.8,16.5 L23.8,21.7 L24,21.7 Z" id="Shape"></path>
        </g>
    </g>
</svg>
