<?xml version="1.0" encoding="UTF-8"?>
<svg width="42px" height="42px" viewBox="0 0 42 42" version="1.1" xmlns="http://www.w3.org/2000/svg" xmlns:xlink="http://www.w3.org/1999/xlink">
    <!-- Generator: Sketch 51.2 (57519) - http://www.bohemiancoding.com/sketch -->
    <title>instagram</title>
    <desc>Created with Sketch.</desc>
    <defs></defs>
    <g id="Page-1" stroke="none" stroke-width="1" fill="none" fill-rule="evenodd">
        <g id="instagram" fill="#6ECDBE" fill-rule="nonzero">
            <path d="M27.3,11.2 L14.7,11.2 C12.7,11.2 11.1,12.8 11.1,14.8 L11.1,27.3 C11.1,29.3 12.7,30.9 14.7,30.9 L27.2,30.9 C29.2,30.9 30.8,29.3 30.8,27.3 L30.8,14.8 C30.9,12.8 29.3,11.2 27.3,11.2 Z M21,27.6 C17.4,27.6 14.5,24.7 14.5,21.1 C14.5,17.5 17.4,14.6 21,14.6 C24.6,14.6 27.5,17.5 27.5,21.1 C27.5,24.7 24.6,27.6 21,27.6 Z M27.7,15.9 C26.8,15.9 26.2,15.2 26.2,14.4 C26.2,13.6 26.9,12.9 27.7,12.9 C28.5,12.9 29.2,13.6 29.2,14.4 C29.2,15.2 28.6,15.9 27.7,15.9 Z" id="Shape"></path>
            <path d="M21,17.3 C18.9,17.3 17.2,19 17.2,21.1 C17.2,23.2 18.9,24.9 21,24.9 C23.1,24.9 24.8,23.2 24.8,21.1 C24.8,19 23.1,17.3 21,17.3 Z" id="Shape"></path>
            <path d="M21,0 C9.4,0 0,9.4 0,21 C0,32.6 9.4,42 21,42 C32.6,42 42,32.6 42,21 C42,9.4 32.6,0 21,0 Z M33.6,27.3 C33.6,30.8 30.7,33.7 27.2,33.7 L14.7,33.7 C11.2,33.7 8.3,30.8 8.3,27.3 L8.3,14.8 C8.3,11.3 11.2,8.4 14.7,8.4 L27.2,8.4 C30.7,8.4 33.6,11.3 33.6,14.8 L33.6,27.3 Z" id="Shape"></path>
        </g>
    </g>
</svg>