<svg width="42px" height="42px" viewBox="0 0 42 42" version="1.1" xmlns="http://www.w3.org/2000/svg" xmlns:xlink="http://www.w3.org/1999/xlink">
    <g id="Page-1" stroke="none" stroke-width="1" fill="none" fill-rule="evenodd">
        <g id="pinterest" fill="#6ECDBE" fill-rule="nonzero">
            <path d="M21,0 C9.4,0 0,9.4 0,21 C0,32.6 9.4,42 21,42 C32.6,42 42,32.6 42,21 C42,9.4 32.6,0 21,0 Z M22.7,28.1 C21.1,28 20.4,27.2 19.2,26.4 C18.5,30 17.7,33.4 15.2,35.2 C14.4,29.8 16.3,25.7 17.2,21.4 C15.7,18.9 17.4,13.8 20.5,15.1 C24.4,16.6 17.1,24.5 22,25.4 C27.1,26.4 29.1,16.6 26,13.4 C21.4,8.8 12.8,13.3 13.8,19.9 C14.1,21.5 15.7,22 14.5,24.2 C11.6,23.6 10.7,21.3 10.8,18.2 C11,13.2 15.3,9.7 19.6,9.2 C25.1,8.6 30.2,11.2 30.9,16.4 C31.8,22.3 28.5,28.6 22.7,28.1 Z" id="Shape"></path>
        </g>
    </g>
</svg>
