<?xml version="1.0" encoding="UTF-8"?>
<svg width="42px" height="42px" viewBox="0 0 42 42" version="1.1" xmlns="http://www.w3.org/2000/svg" xmlns:xlink="http://www.w3.org/1999/xlink">
    <!-- Generator: Sketch 51.2 (57519) - http://www.bohemiancoding.com/sketch -->
    <title>twitter</title>
    <desc>Created with Sketch.</desc>
    <defs></defs>
    <g id="Page-1" stroke="none" stroke-width="1" fill="none" fill-rule="evenodd">
        <g id="twitter" fill="#6ECDBE" fill-rule="nonzero">
            <path d="M21,0 C9.4,0 0,9.4 0,21 C0,32.6 9.4,42 21,42 C32.6,42 42,32.6 42,21 C42,9.4 32.6,0 21,0 Z M31.4,16.2 C31.4,16.4 31.4,16.6 31.4,16.8 C31.4,23.4 26.3,31.1 17.1,31.1 C14.3,31.1 11.6,30.3 9.4,28.8 C9.8,28.8 10.2,28.9 10.6,28.9 C12.9,28.9 15.1,28.1 16.8,26.8 C14.6,26.8 12.7,25.3 12.1,23.3 C12.4,23.4 12.7,23.4 13,23.4 C13.5,23.4 13.9,23.3 14.3,23.2 C12,22.7 10.3,20.7 10.3,18.3 C10.3,18.3 10.3,18.3 10.3,18.2 C11,18.6 11.7,18.8 12.6,18.8 C11.2,17.9 10.4,16.4 10.4,14.6 C10.4,13.7 10.7,12.8 11.1,12.1 C13.6,15.1 17.3,17.1 21.5,17.4 C21.4,17 21.4,16.6 21.4,16.3 C21.4,13.5 23.7,11.3 26.4,11.3 C27.8,11.3 29.2,11.9 30.1,12.9 C31.2,12.7 32.3,12.3 33.3,11.7 C32.9,12.9 32.1,13.9 31.1,14.5 C32.1,14.4 33.1,14.1 34,13.7 C33.2,14.6 32.3,15.5 31.4,16.2 Z" id="Shape"></path>
        </g>
    </g>
</svg>