<svg width="32px" height="32px" viewBox="0 0 32 32" version="1.1" xmlns="http://www.w3.org/2000/svg" xmlns:xlink="http://www.w3.org/1999/xlink">
    <g id="Page-1" stroke="none" stroke-width="1" fill="none" fill-rule="evenodd">
        <g id="б†©в_®™Ѓ" fill="#6ECDBE" fill-rule="nonzero">
            <path d="M16,0 C7.2,0 0,7.2 0,16 C0,24.8 7.2,32 16,32 C24.8,32 32,24.8 32,16 C32,7.2 24.8,0 16,0 Z M22.8,21 L21,22.9 C20.9,23 20.8,23 20.6,23 C20.5,23 20.3,22.9 20.2,22.9 L16.3,19 L14.7,21.8 C14.6,22 14.4,22.1 14.2,22.1 C14,22.1 13.8,22 13.8,21.8 L9,9.7 C9,9.5 9,9.3 9.1,9.1 C9.3,9 9.5,9 9.7,9 L21.7,13.8 C21.9,13.9 22,14 22,14.2 C22,14.4 21.9,14.6 21.7,14.7 L18.9,16.3 L22.8,20.2 C23,20.5 23,20.8 22.8,21 Z" id="Shape"></path>
        </g>
    </g>
</svg>
