<?xml version="1.0" encoding="utf-8"?>
<!-- Generator: Adobe Illustrator 22.0.1, SVG Export Plug-In . SVG Version: 6.00 Build 0)  -->
<svg version="1.1" id="Слой_1" xmlns="http://www.w3.org/2000/svg" xmlns:xlink="http://www.w3.org/1999/xlink" x="0px" y="0px"
	 viewBox="0 0 150 150" style="enable-background:new 0 0 150 150;" xml:space="preserve">
<style type="text/css">
	.st0{fill:#6ECDBE;}
	.st1{fill:#F08058;}
	.st2{fill:#FCDE54;}
	.st3{fill:#EF4953;}
	.st4{fill:#303D4A;}
</style>
<g id="Слой_1_1_">
	<circle class="st0" cx="75" cy="75" r="75"/>
</g>
<g id="Слой_10">
	<polygon class="st1" points="45,76 53,83 55,83 65,74 49,75 	"/>
</g>
<g id="Слой_9">
	<path class="st2" d="M48,79l5,5l2-2l7-5c0,0,23,0,32,1s19,5,20,7s0,22,0,22s-5,4-10,5s-11,2-11,2l-19-9H36V85C36,85,42,81,48,79z"
		/>
</g>
<g id="Слой_7">
	<path class="st3" d="M36,57c0,0,7-3,12-1s12-1,12-1s3,0,7,1s4,2,4,2l-1,7l-6,10c0,0-10,0-18,2l-3-2c0,0-5-6-6-9S36,57,36,57z"/>
</g>
<g>
	<path class="st4" d="M75,76c-3.8,0-7.5,0.1-11,0.4c5.8-5.6,8.8-13.7,7.8-21.8L69.5,35h-32l-2.3,19.6c-1.1,8.9,2.6,17.8,9.6,23.4
		l1.3,1.1c-5.2,1.3-8.9,3-10.4,5c-0.4,0.1-0.8,0.5-0.8,1v20c0,0.6,0.4,1,1,1h16.5v1.7c-1,1.8-2.5,3.3-4.5,4.1l-2.8,1.1
		c-1.2,0.5-0.8,2.2,0.4,2.2h15.8c1.3,0,1.6-1.7,0.4-2.2l-2.5-1c-2.1-0.8-3.8-2.3-4.8-4.2V106h20.3l17.8,8.9c0.1,0.1,0.3,0.1,0.4,0.1
		c0.2,0,0.4,0,0.5-0.1l0,0c12.7-1.6,21.4-5,21.4-8.8V86C115,80.5,97.1,76,75,76z M37.2,54.9L39.3,37h28.4l2.1,17.9
		c0,0.2,0,0.3,0,0.5l-2.5-0.8c-3.1-1.1-6.5-1.1-9.7,0c-2.7,0.9-5.7,0.9-8.3,0c-2.3-0.8-4.8-1-7.2-0.6c0-0.3,0.1-0.7,0.1-1l0.6-4.7
		c0.1-0.6-0.4-1.1-1-1.1c-0.5,0-0.9,0.4-1,0.9l-0.6,4.7c-0.1,0.6-0.1,1.2-0.2,1.7c-0.1,0-0.2,0.1-0.4,0.1l-2.5,0.8
		C37.2,55.2,37.2,55.1,37.2,54.9z M47.2,80.9c0.3-0.1,0.6-0.2,0.9-0.2l4.1,3.3H38.9C40.4,83.1,43,81.9,47.2,80.9z M37,104V86h15.5
		v18H37z M57,113h-7c1.4-0.8,2.6-1.8,3.5-3.1C54.4,111.2,55.6,112.2,57,113z M53.5,82.5l-5.8-4.7c0.4-0.1,0.9-0.2,1.4-0.3
		c0.7-0.2,1-1,0.6-1.6c-0.3-0.3-0.7-0.5-1.1-0.4c-1,0.2-1.9,0.4-2.9,0.7C40.2,71.5,37,64.7,37,57.5l3-1c0.1,2.5,0.6,5,1.4,7.4
		c0.2,0.5,0.8,0.8,1.3,0.6s0.7-0.7,0.5-1.2C42.4,60.9,42,58.5,42,56c2.2-0.4,4.5-0.3,6.7,0.4c3.1,1.1,6.5,1.1,9.7,0
		c2.7-0.9,5.7-0.9,8.4,0l3.3,1.1c0.1,7.4-3.2,14.3-9.1,19L53.5,82.5z M92,112.4l-16-8V89c0-0.6-0.4-1-1-1s-1,0.4-1,1v15H54.5V86
		h20.3L92,94.6V112.4z M113,106c0,1.3-4.6,4.7-18,6.6V95c0-0.1,0-0.2,0-0.3c6.9-1,12.6-2.5,16-4.3c0.5-0.3,0.7-0.7,0.6-1.1
		c-0.1-0.7-0.8-1.1-1.5-0.7c-1.6,0.8-3.9,1.7-7.4,2.6c-2.8,0.7-6,1.3-9.4,1.7l-17.4-8.7C75.6,84.1,75.3,84,75,84H54.7l6.7-5.4
		C65.7,78.2,70.3,78,75,78c10.5,0,20.4,1,27.8,2.9c4.1,1,6.6,2.1,8.1,3l0,0l0,0c1.6,1,2.1,1.8,2.1,2.1V106z"/>
	<path class="st4" d="M58.7,73.8c-2.2,0.2-4.3,0.5-6.2,0.9c-0.9,0.2-1.2,1-0.7,1.6c0.2,0.3,0.6,0.5,1,0.4c1.9-0.3,4-0.6,6.1-0.9
		c0.2,0,0.4-0.1,0.6-0.3C60.2,74.8,59.6,73.7,58.7,73.8z"/>
	<path class="st4" d="M45.6,68.3c-0.3-0.4-0.9-0.5-1.4-0.2c-0.4,0.3-0.6,0.9-0.3,1.3c0.8,1.4,1.8,2.6,2.9,3.8c0.4,0.4,1,0.4,1.4,0
		s0.4-1,0-1.4C47.2,70.7,46.3,69.6,45.6,68.3z"/>
	<path class="st4" d="M61,90c-2.2,0-4,1.8-4,4s1.8,4,4,4s4-1.8,4-4S63.2,90,61,90z M61,96c-1.1,0-2-0.9-2-2s0.9-2,2-2s2,0.9,2,2
		S62.1,96,61,96z"/>
	<path class="st4" d="M81,101c0,1.7,1.3,3,3,3s3-1.3,3-3s-1.3-3-3-3S81,99.3,81,101z M84,100c0.6,0,1,0.4,1,1s-0.4,1-1,1s-1-0.4-1-1
		S83.4,100,84,100z"/>
	<path class="st4" d="M102.5,103c-1.4,0-2.5,1.1-2.5,2.5s1.1,2.5,2.5,2.5s2.5-1.1,2.5-2.5S103.9,103,102.5,103z M102.5,106
		c-0.3,0-0.5-0.2-0.5-0.5s0.2-0.5,0.5-0.5s0.5,0.2,0.5,0.5S102.8,106,102.5,106z"/>
	<circle class="st4" cx="41" cy="90" r="2"/>
	<circle class="st4" cx="81" cy="94" r="2"/>
</g>
</svg>
