<?xml version="1.0" encoding="utf-8"?>
<!-- Generator: Adobe Illustrator 22.0.1, SVG Export Plug-In . SVG Version: 6.00 Build 0)  -->
<svg version="1.1" id="Слой_1" xmlns="http://www.w3.org/2000/svg" xmlns:xlink="http://www.w3.org/1999/xlink" x="0px" y="0px"
	 viewBox="0 0 150 150" style="enable-background:new 0 0 150 150;" xml:space="preserve">
<style type="text/css">
	.st0{fill:#6ECDBE;}
	.st1{fill:#E8EEF5;}
	.st2{fill:#DAE3EA;}
	.st3{fill:#EF4953;}
	.st4{fill:#1DDD93;}
	.st5{fill:#FFFFFF;}
	.st6{fill:#303D4A;}
</style>
<g id="Слой_1_1_">
	<circle class="st0" cx="75" cy="75" r="75"/>
</g>
<path class="st1" d="M58,49c0,0-1-1-6-1s-12,7-13,12s3,13,6,15s8,4,8,10s1,26,1,26s-1,3,5,3s35,0,35,0l2-1l4-35c0,0,7-4,9-8
	s3-13-4-19s-14-2-14-2s-2-12-16-13S58,49,58,49z"/>
<polygon class="st2" points="53.6,102 80,102 96,113 92.8,114 56.3,113.7 54,111 "/>
<polygon class="st3" points="103,81 86,105 97,113 114,89 "/>
<polygon class="st4" points="80,65 91,73 74,97 63,89 "/>
<g id="Слой_6">
	<polygon class="st5" points="92,73 103,81 86,105 75,97 	"/>
</g>
<g id="Слой_4">
	<path class="st6" d="M63.2,68L63.2,68c0.2-0.3,0.2-0.6,0.1-0.9l-1.1-2.9c-0.2-0.5-0.8-0.8-1.3-0.6s-0.8,0.8-0.6,1.3l1.1,2.9
		C61.7,68.6,62.8,68.7,63.2,68z"/>
</g>
<g id="Слой_3">
	<path class="st6" d="M111.9,61.6c-0.7-7.6-6.8-13.7-14.3-14.5C97.1,47,96.5,47,96,47c-1.3,0-2.6,0.2-3.9,0.5
		c-2.2-6.7-8.2-11.7-15.3-12.4c-8.8-0.9-16.4,4.6-18.9,12.4C56.6,47.2,55.3,47,54,47c-0.5,0-1.1,0-1.6,0.1
		c-7.6,0.7-13.7,6.9-14.3,14.5c-0.6,7,3.3,13.2,9.2,15.9c2.7,1.3,4.6,3.8,4.7,6.8l1,26.8c0.1,2.2,1.8,3.9,4,3.9h36.3
		c1.6,0,3-0.9,3.6-2.3c-0.6-0.2-1.3-0.5-1.8-0.9c-0.3,0.7-1,1.2-1.8,1.2H56.9c-1.1,0-2-0.8-2-1.9l-0.3-8.1H58c0.6,0,1-0.4,1-1
		s-0.4-1-1-1h-3.5l-0.6-16.8c-0.1-3.7-2.4-7-5.8-8.6c-5.4-2.5-8.5-8-8-13.9c0.6-6.6,6-12,12.5-12.7c0.5,0,1-0.1,1.4-0.1
		c1.2,0,2.3,0.2,3.4,0.4C57.1,50.6,57,51.8,57,53c0,2.3,0.5,4.5,1.3,6.6c0.2,0.5,0.8,0.7,1.3,0.5l0,0c0.5-0.2,0.7-0.8,0.5-1.3
		c-0.8-2.1-1.2-4.4-1.1-6.9c0.6-8.1,7.3-14.6,15.4-14.9C83.5,36.7,91,44,91,53c0,2.2-0.4,4.2-1.2,6.1c-0.2,0.5,0,1.1,0.5,1.3l0,0
		c0.5,0.3,1.1,0,1.4-0.5c1.3-3.1,1.8-6.5,1.1-10.2c0-0.1,0-0.2-0.1-0.3c1.1-0.3,2.2-0.4,3.4-0.4c0.5,0,1,0,1.4,0.1
		c6.6,0.6,11.9,6.1,12.5,12.7c0.5,5.9-2.6,11.4-8,13.9c-1.2,0.6-2.2,1.3-3.1,2.2c0.6,0.3,1.1,0.8,1.5,1.3c0.7-0.7,1.5-1.3,2.4-1.7
		C108.6,74.7,112.5,68.6,111.9,61.6z"/>
	<path class="st6" d="M64,102c0,0.6,0.4,1,1,1h17c-0.6-0.5-1.1-1.2-1.4-2H65C64.4,101,64,101.4,64,102z"/>
</g>
<g id="Слой_5">
	<path class="st6" d="M114.1,87.5L81.4,64.6l2.9-4.1c0.3-0.5,0.2-1.1-0.2-1.4s-1.1-0.2-1.4,0.2l-4,5.7L62.5,88l-17.8,25.4
		c-0.3,0.5-0.2,1.1,0.2,1.4c0.5,0.3,1.1,0.2,1.4-0.2L63,90.8l32.8,22.9c0.9,0.6,2.2,0.4,2.8-0.5l16.1-22.9
		C115.3,89.4,115.1,88.1,114.1,87.5z M101.5,81.1L85.4,104l-9.8-6.9l16.1-22.9L101.5,81.1z M80.2,66.2l9.8,6.9L74,96l-9.8-6.9
		L80.2,66.2z M96.9,112.1l-9.8-6.9l16.1-22.9l9.8,6.9L96.9,112.1z"/>
</g>
</svg>
