<?xml version="1.0" encoding="utf-8"?>
<!-- Generator: Adobe Illustrator 22.0.1, SVG Export Plug-In . SVG Version: 6.00 Build 0)  -->
<svg version="1.1" id="Слой_1" xmlns="http://www.w3.org/2000/svg" xmlns:xlink="http://www.w3.org/1999/xlink" x="0px" y="0px"
	 viewBox="0 0 150 150" style="enable-background:new 0 0 150 150;" xml:space="preserve">
<style type="text/css">
	.st0{fill:#6ECDBE;}
	.st1{fill:#E8EEF5;}
	.st2{fill:#FCDE54;}
	.st3{fill:#EF4953;}
	.st4{fill:#303D4A;}
</style>
<g id="Слой_1_1_">
	<circle class="st0" cx="75" cy="75" r="75"/>
</g>
<g id="Слой_8">
	<polygon class="st1" points="74,39 66,36 61,44 53,45 51,47 51,53 50,56 45,60 45,63 49,69 49,72 47,77 48,79 55,83 56,87 59,91 
		66,91 74,96 77,96 92,92 94,84 97,81 102,79 103,77 101,69 105,62 105,60 100,56 98,53 99,47 97,44 91,44 88,42 84,36 82,36 76,39 
			"/>
</g>
<g id="Слой_7">
	<circle class="st2" cx="75" cy="66" r="21"/>
</g>
<g id="Слой_6">
	<polygon class="st3" points="73,95 83,113 84,112 90,100 103,101 94,85 92,91 89,92 84,91 81,91 78,94 75,96 	"/>
	<polygon class="st3" points="55,84 45,102 59,100 66,113 74,98 73,94 68,91 64,91 60,92 58,90 	"/>
</g>
<g>
	<path class="st4" d="M95.1,83.7c0.5-0.6,1.1-1.1,1.9-1.4l3.7-1.3c2.2-0.8,3.4-3.3,2.5-5.6l-1.4-3.7c-0.5-1.4-0.3-3,0.6-4.2l2.4-3.2
		c1.5-1.9,1.1-4.6-0.9-6.1l-3.2-2.4c-1.2-0.9-1.9-2.3-1.7-3.8l0.3-4c0.2-2.4-1.6-4.5-4-4.6l-4-0.2c-1.5-0.1-2.8-0.9-3.5-2.3
		l-1.9-3.6c-0.3-1.5-1.8-2.3-3.3-2.3c-0.7,0-1.4,0.2-2.1,0.6l-3.5,2c-0.6,0.4-1.4,0.6-2.1,0.6s-1.4-0.2-2.1-0.6l-3.5-2
		c-0.7-0.4-1.4-0.6-2.1-0.6c-1.5,0-3,0.8-3.7,2.3l-1.9,3.6c-0.7,1.3-2,2.2-3.5,2.3l-4,0.2c-2.4,0.1-4.2,2.2-4,4.6l0.3,4
		c0.1,1.5-0.5,2.9-1.7,3.8l-3.2,2.4c-1.9,1.4-2.3,4.2-0.9,6.1l2.4,3.2c0.9,1.2,1.1,2.8,0.6,4.2l-1.4,3.7c-0.9,2.2,0.3,4.8,2.5,5.6
		l3.7,1.3c0.7,0.3,1.3,0.7,1.8,1.3L44,101.3c-0.4,0.7,0.1,1.5,0.9,1.5H45l14.2-1.9l5.5,13.2c0.2,0.4,0.6,0.6,0.9,0.6
		s0.7-0.2,0.9-0.5l8.1-14.1l8.2,14.2c0.2,0.3,0.5,0.5,0.9,0.5s0.8-0.2,0.9-0.6L90,101l14.2,1.9h0.1c0.8,0,1.3-0.9,0.9-1.6L95.1,83.7
		z M53.2,80.3L49.5,79c-0.6-0.2-1-0.6-1.3-1.2s-0.3-1.2-0.1-1.8l1.4-3.7c0.8-2,0.5-4.4-0.9-6.1L46.5,63c-0.4-0.5-0.5-1.1-0.4-1.7
		c0.1-0.6,0.4-1.1,0.9-1.5l3.2-2.4c1.8-1.3,2.7-3.4,2.5-5.6l-0.3-4c-0.1-0.6,0.1-1.2,0.5-1.7s0.9-0.7,1.5-0.8l4-0.2
		c2.2-0.1,4.1-1.4,5.2-3.3l1.9-3.6c0.4-0.7,1.1-1.2,2-1.2c0.4,0,0.7,0.1,1.1,0.3l3.5,2c0.9,0.5,2,0.8,3.1,0.8s2.1-0.3,3.1-0.8l3.5-2
		c0.1-0.2,0.4-0.3,0.8-0.3c0.8,0,1.6,0.5,2,1.2l1.9,3.6c1,1.9,3,3.2,5.2,3.3l4,0.2c0.6,0,1.1,0.3,1.5,0.8s0.6,1.1,0.5,1.7l-0.3,4
		c-0.2,2.2,0.8,4.3,2.5,5.6l3.2,2.4c0.5,0.4,0.8,0.9,0.9,1.5s-0.1,1.2-0.4,1.7l-2.4,3.2c-1.3,1.7-1.7,4.1-0.9,6.1l1.4,3.7
		c0.2,0.6,0.2,1.2-0.1,1.8s-0.7,1-1.3,1.2l-3.7,1.3c-2,0.7-3.6,2.5-4,4.7l-0.8,3.9c-0.2,1-1.1,1.8-2.2,1.8c-0.2,0-0.3,0-0.5-0.1
		l-3.9-0.9c-0.5-0.1-0.9-0.2-1.4-0.2c-1.7,0-3.3,0.7-4.5,1.9l-2.8,2.9c-0.4,0.4-1,0.7-1.6,0.7s-1.2-0.2-1.6-0.7l-2.8-2.9
		c-1.2-1.2-2.8-1.9-4.5-1.9c-0.5,0-1,0.1-1.4,0.2l-3.9,0.9c-0.2,0-0.3,0.1-0.5,0.1c-1.1,0-2-0.8-2.2-1.8L57.2,85
		C56.8,82.9,55.2,81.1,53.2,80.3z M65.6,111.6L61,100.2c-0.3-0.8-1-1.2-1.8-1.2c-0.1,0-0.2,0-0.3,0l-12.2,1.6l8.5-14.7l0.7,3.5
		c0.4,2,2.2,3.4,4.1,3.4c0.3,0,0.6,0,1-0.1l3.9-0.9c0.3-0.1,0.6-0.1,1-0.1c1.1,0,2.2,0.5,3,1.3l2.8,2.9c0.3,0.3,0.5,0.5,0.8,0.7
		l0.9,1.5L65.6,111.6z M90.3,99c-0.1,0-0.2,0-0.3,0c-0.8,0-1.5,0.5-1.8,1.2l-4.7,11.4l-8.4-14.4c0.9-0.1,1.9-0.5,2.6-1.3l2.8-2.9
		c0.8-0.8,1.9-1.3,3-1.3c0.3,0,0.6,0,1,0.1l3.9,0.9c0.3,0.1,0.6,0.1,1,0.1c2,0,3.7-1.4,4.1-3.4l0.7-3.3l8.3,14.5L90.3,99z"/>
	<path class="st4" d="M60.5,85.1L60.5,85.1c0.1,0.7,0.5,1.3,1,1.6c0.6,0.3,1.2,0.4,1.8,0.3l0.8-0.2c3.1-0.7,6.5,0.3,8.7,2.6l0.5,0.5
		c0.5,0.4,1.1,0.7,1.7,0.7s1.2-0.2,1.6-0.8c2.6-2.6,6.4-3.8,10-2.9c0.6,0.2,1.3,0,1.8-0.3s0.9-0.9,1-1.5l0.2-0.8
		c0.6-3.2,2.9-5.8,5.9-6.9l0.8-0.3c0.6-0.2,1-0.6,1.3-1.2s0.3-1.2,0.1-1.8l-0.1-0.2c-1.3-3.5-0.7-7.4,1.5-10.3l0.1-0.1
		c0.4-0.5,0.6-1.1,0.5-1.7s-0.4-1.1-0.9-1.5l-0.1-0.1c-3-2.1-4.6-5.7-4.3-9.4v-0.1c0-0.6-0.2-1.2-0.6-1.7c-0.5-0.5-1-0.8-1.7-0.8
		c-3.7-0.2-7.1-2.4-8.8-5.7c-0.3-0.5-0.8-0.9-1.4-1.1c-0.6-0.2-1.2-0.1-1.8,0.2c-3.2,1.8-7.2,1.8-10.4,0c-0.6-0.3-1.2-0.4-1.8-0.2
		c-0.6,0.2-1.1,0.6-1.4,1.2c-1.7,3.3-5.1,5.5-8.8,5.7c-0.6,0-1.2,0.3-1.6,0.8c-0.5,0.5-0.7,1.1-0.6,1.7v0.1c0.3,3.6-1.3,7.2-4.3,9.4
		l-0.1,0.1c-0.5,0.3-0.8,0.9-0.9,1.5c0,0.6,0.1,1.2,0.5,1.7l0.1,0.1c2.3,2.9,2.8,6.9,1.5,10.3l-0.1,0.2C52,74.8,52,75.4,52.3,76
		c0.2,0.5,0.7,1,1.4,1.2C57.2,78.5,59.8,81.5,60.5,85.1z M55,65.5c0-11,9-20,20-20s20,9,20,20s-9,20-20,20S55,76.5,55,65.5z
		 M63.5,84.7l-0.7,0.2c-0.1,0.1-0.2,0-0.2,0s-0.1-0.1-0.1-0.2v-0.1c-0.1-0.4-0.2-0.8-0.3-1.2c0.6,0.4,1.3,0.9,1.9,1.2
		C63.9,84.7,63.7,84.7,63.5,84.7z M75,88.5c0,0-0.1,0-0.2-0.1l-0.5-0.5c-0.2-0.2-0.3-0.3-0.5-0.4c0.4,0,0.8,0,1.2,0
		c0.4,0,0.8,0,1.2,0c-0.4,0.3-0.7,0.6-1,0.9C75.1,88.5,75,88.5,75,88.5z M87.5,84.7c0,0.1-0.1,0.2-0.1,0.2c-0.1,0-0.2,0-0.3,0
		c-0.4-0.1-0.9-0.2-1.3-0.2c0.7-0.4,1.4-0.8,2-1.3c0,0.2-0.1,0.3-0.1,0.5L87.5,84.7z M95.9,75c0,0.1-0.1,0.2-0.2,0.2l-0.8,0.3
		c-0.1,0-0.2,0.1-0.4,0.2c0.3-0.7,0.7-1.4,0.9-2.1c0.1,0.3,0.2,0.7,0.3,1l0.1,0.2C95.9,74.9,95.9,75,95.9,75z M97.6,61.9
		c0.1,0.1,0.1,0.2,0.1,0.2s0,0.1-0.1,0.2l-0.1,0.1c-0.2,0.3-0.4,0.6-0.6,0.9c-0.1-0.8-0.2-1.6-0.3-2.3
		C96.9,61.3,97.2,61.5,97.6,61.9L97.6,61.9z M92.3,50.3c0.1,0,0.1,0.1,0.1,0.2v0.1c0,0.5,0,0.9,0,1.4c-0.5-0.7-1.1-1.3-1.7-2
		c0.5,0.1,1,0.2,1.4,0.2C92.2,50.2,92.3,50.3,92.3,50.3z M81.2,43.3c0.1,0,0.2,0,0.2,0s0.1,0.1,0.2,0.2c0.2,0.4,0.5,0.9,0.8,1.3
		c-0.9-0.3-1.7-0.6-2.6-0.8C80.2,43.8,80.7,43.6,81.2,43.3z M68.4,43.5c0.1-0.1,0.2-0.2,0.2-0.2s0.1-0.1,0.2,0
		c0.5,0.3,1,0.5,1.5,0.7c-0.9,0.2-1.8,0.4-2.6,0.7C67.9,44.4,68.2,43.9,68.4,43.5z M57.6,50.6c0-0.1,0.1-0.2,0.1-0.2
		c0.1,0,0.1-0.1,0.3-0.1c0.4,0,0.8-0.1,1.2-0.2c-0.6,0.6-1.1,1.2-1.6,1.8C57.6,51.5,57.6,51.1,57.6,50.6L57.6,50.6z M52.4,62.3
		c-0.1-0.1-0.1-0.2-0.1-0.2s0-0.1,0.1-0.2l0.1-0.1c0.3-0.2,0.6-0.5,1-0.8c-0.2,0.7-0.3,1.5-0.3,2.3c-0.2-0.3-0.4-0.6-0.6-0.9
		L52.4,62.3z M54.1,75c0,0,0-0.1,0-0.2l0.1-0.2c0.1-0.3,0.2-0.7,0.3-1c0.3,0.7,0.6,1.4,1,2.1c-0.4-0.2-0.8-0.4-1.2-0.5
		C54.2,75.1,54.1,75,54.1,75z"/>
</g>
</svg>
