<?xml version="1.0" encoding="UTF-8"?>
<svg width="60px" height="90px" viewBox="0 0 60 90" version="1.1" xmlns="http://www.w3.org/2000/svg" xmlns:xlink="http://www.w3.org/1999/xlink">
    <!-- Generator: Sketch 51.2 (57519) - http://www.bohemiancoding.com/sketch -->
    <title>pdf</title>
    <desc>Created with Sketch.</desc>
    <defs></defs>
    <g id="Page-1" stroke="none" stroke-width="1" fill="none" fill-rule="evenodd">
        <g id="pdf" fill-rule="nonzero">
            <g id="Слой_1_1_" fill="#F08058">
                <path d="M60,30 L38,23 L30,0 L4,0 C1.8,0 0,1.8 0,4 L0,86 C0,88.2 1.8,90 4,90 L56,90 C58.2,90 60,88.2 60,86 L60,30 Z" id="Shape"></path>
            </g>
            <g id="Слой_3" transform="translate(33.000000, 30.000000)" fill="#C9522D">
                <polygon id="Shape" points="0 0 27 27 27 0"></polygon>
            </g>
            <g id="Слой_2_1_" transform="translate(30.000000, 0.000000)" fill="#F29C81">
                <path d="M4,30 L30,30 L0,0 L0,26 C0,28.2 1.8,30 4,30 Z" id="Shape"></path>
            </g>
            <g id="Слой_4" transform="translate(17.000000, 36.000000)" fill="#FFFFFF">
                <g id="Group">
                    <polygon id="Shape" points="20.1 13 18.7 11.6 14 16.2 14 0 12 0 12 16.2 7.3 11.6 5.9 13 13 20.1"></polygon>
                    <rect id="Rectangle-path" x="0" y="23" width="26" height="2"></rect>
                    <path d="M6.7,29.8 C5.9,29.3 4.8,29 3.4,29 C3,29 2.5,29 2,29.1 C1.5,29.1 1,29.2 0.5,29.3 L0.5,38.9 L2.7,38.9 L2.7,35.6 L3.4,35.6 C4.9,35.6 6,35.3 6.8,34.8 C7.6,34.3 8,33.4 8,32.3 C7.8,31.1 7.5,30.3 6.7,29.8 Z M5,33.4 C4.6,33.6 4,33.7 3.3,33.7 L2.6,33.7 L2.6,30.9 C2.7,30.9 2.8,30.9 3,30.9 C3.1,30.9 3.3,30.9 3.5,30.9 C3.8,30.9 4.1,30.9 4.4,31 C4.7,31.1 4.9,31.1 5.1,31.2 C5.3,31.3 5.4,31.5 5.5,31.6 C5.6,31.7 5.6,32 5.6,32.3 C5.6,32.8 5.4,33.2 5,33.4 Z" id="Shape"></path>
                    <path d="M16.4,30.2 C15.9,29.8 15.3,29.5 14.7,29.3 C14.1,29.1 13.3,29 12.4,29 C12,29 11.5,29 11,29.1 C10.5,29.1 9.9,29.2 9.4,29.3 L9.4,38.7 C9.9,38.8 10.4,38.9 10.9,38.9 C11.4,38.9 11.9,39 12.3,39 C13.2,39 13.9,38.9 14.6,38.7 C15.3,38.5 15.9,38.2 16.4,37.8 C16.9,37.4 17.2,36.9 17.5,36.2 C17.8,35.6 17.9,34.8 17.9,34 C17.9,33.1 17.8,32.4 17.5,31.7 C17.3,31.1 16.9,30.6 16.4,30.2 Z M14.9,36.2 C14.4,36.8 13.6,37 12.5,37 C12.3,37 12.1,37 12,37 C11.9,37 11.7,37 11.6,37 L11.6,30.9 C11.7,30.9 11.9,30.9 12.1,30.9 C12.3,30.9 12.4,30.9 12.6,30.9 C13.7,30.9 14.5,31.2 15,31.7 C15.5,32.2 15.8,33 15.8,34 C15.7,34.9 15.4,35.7 14.9,36.2 Z" id="Shape"></path>
                    <polygon id="Shape" points="26.3 30.9 26.3 29.1 19.8 29.1 19.8 38.8 22 38.8 22 34.8 25.8 34.8 25.8 33 22 33 22 30.9"></polygon>
                </g>
            </g>
        </g>
    </g>
</svg>