<?xml version="1.0" encoding="utf-8"?>
<!-- Generator: Adobe Illustrator 22.0.1, SVG Export Plug-In . SVG Version: 6.00 Build 0)  -->
<svg version="1.1" id="Слой_1" xmlns="http://www.w3.org/2000/svg" xmlns:xlink="http://www.w3.org/1999/xlink" x="0px" y="0px"
	 viewBox="0 0 150 150" style="enable-background:new 0 0 150 150;" xml:space="preserve">
<style type="text/css">
	.st0{fill:#6ECDBE;}
	.st1{fill:#E8EEF5;}
	.st2{fill:#F08058;}
	.st3{fill:#DAE3EA;}
	.st4{fill:#6E9BCC;}
	.st5{fill:#FCDE54;}
	.st6{fill:#EF4953;}
	.st7{fill:#303D4A;}
</style>
<g id="Слой_1_1_">
	<circle class="st0" cx="75" cy="75" r="75"/>
</g>
<g id="Слой_10">
	<rect x="42" y="58" class="st1" width="66" height="52"/>
</g>
<g id="Слой_5">
	<polygon class="st2" points="83,42 82,40 81,38 78,37 75,36 71,37 67,41 66.5,42 48,42 48,54 102,54 102,42 	"/>
</g>
<rect x="36" y="110" class="st3" width="78" height="4"/>
<rect x="48" y="68" class="st2" width="24" height="45"/>
<g id="Слой_8">
	<rect x="78" y="68" class="st4" width="24" height="26"/>
</g>
<g id="Слой_4">
	<path class="st5" d="M39,60L39,60c-1.7,0-3-1.3-3-3V46h6v11C42,58.7,40.7,60,39,60z"/>
	<path class="st5" d="M51,60L51,60c-1.7,0-3-1.3-3-3v-3h6v3C54,58.7,52.7,60,51,60z"/>
	<path class="st5" d="M63,60L63,60c-1.7,0-3-1.3-3-3v-3h6v3C66,58.7,64.7,60,63,60z"/>
	<path class="st5" d="M75,60L75,60c-1.7,0-3-1.3-3-3v-3h6v3C78,58.7,76.7,60,75,60z"/>
	<path class="st5" d="M87,60L87,60c-1.7,0-3-1.3-3-3v-3h6v3C90,58.7,88.7,60,87,60z"/>
	<path class="st5" d="M99,60L99,60c-1.7,0-3-1.3-3-3v-3h6v3C102,58.7,100.7,60,99,60z"/>
	<path class="st5" d="M111,60L111,60c-1.7,0-3-1.3-3-3V46h6v11C114,58.7,112.7,60,111,60z"/>
	<path class="st6" d="M105,60L105,60c-1.7,0-3-1.3-3-3V46h6v11C108,58.7,106.7,60,105,60z"/>
	<path class="st6" d="M45,60L45,60c-1.7,0-3-1.3-3-3V46h6v11C48,58.7,46.7,60,45,60z"/>
	<path class="st6" d="M57,60L57,60c-1.7,0-3-1.3-3-3v-3h6v3C60,58.7,58.7,60,57,60z"/>
	<path class="st6" d="M69,60L69,60c-1.7,0-3-1.3-3-3v-3h6v3C72,58.7,70.7,60,69,60z"/>
	<path class="st6" d="M81,60L81,60c-1.7,0-3-1.3-3-3v-3h6v3C84,58.7,82.7,60,81,60z"/>
	<path class="st6" d="M93,60L93,60c-1.7,0-3-1.3-3-3v-3h6v3C96,58.7,94.7,60,93,60z"/>
</g>
<g id="Слой_9">
</g>
<g id="Слой_7">
	<g>
		<path class="st7" d="M101,67H79c-1.1,0-2,0.9-2,2v24c0,1.1,0.9,2,2,2h22c1.1,0,2-0.9,2-2V69C103,67.9,102.1,67,101,67z M101,93H79
			V69h22V93z"/>
		<path class="st7" d="M102,97H78c-0.6,0-1,0.4-1,1s0.4,1,1,1h24c0.6,0,1-0.4,1-1S102.6,97,102,97z"/>
		<circle class="st7" cx="68" cy="90" r="1"/>
		<path class="st7" d="M67.5,93h-15c-1.1,0-2,0.9-2,2v14c0,1.1,0.9,2,2,2h15c1.1,0,2-0.9,2-2V95C69.5,93.9,68.6,93,67.5,93z
			 M67.5,109h-15V95h15V109z"/>
		<path class="st7" d="M67.5,71h-15c-1.1,0-2,0.9-2,2v12c0,1.1,0.9,2,2,2h15c1.1,0,2-0.9,2-2V73C69.5,71.9,68.6,71,67.5,71z
			 M67.5,85h-15V73h15V85z"/>
		<path class="st7" d="M111.6,61c2-0.3,3.4-2.1,3.4-4.1V45h-6h-2h-4v-2c0-1.1-0.9-2-2-2H84.2c-1.5-3.5-5.1-6-9.2-6s-7.6,2.5-9.2,6
			H49c-1.1,0-2,0.9-2,2v2h-4h-2h-6v11.8c0,2,1.4,3.8,3.4,4.1c1,0.1,1.9-0.1,2.6-0.5V109h-3c-1.7,0-3,1.3-3,3s1.3,3,3,3h11h22h41
			c1.7,0,3-1.3,3-3s-1.3-3-3-3h-3V60.4C109.7,60.9,110.6,61.1,111.6,61z M109,47h4v10c0,1.1-0.9,2-2,2s-2-0.9-2-2V47z M103,47h4v9.9
			c0,1-0.7,1.9-1.7,2.1c-1.3,0.2-2.3-0.8-2.3-2v-4V47z M49,43h16.8c0.8,0,1.5-0.5,1.8-1.2c1.3-2.9,4.2-4.8,7.3-4.8s6.1,1.9,7.3,4.8
			c0.3,0.7,1,1.2,1.8,1.2h17v10H49V43z M101,55v1.9c0,1-0.7,1.9-1.7,2.1C98,59.2,97,58.2,97,57v-1h-1.1c-0.5,0-0.9,0.4-0.9,0.9
			c0,1-0.7,1.9-1.7,2.1C92,59.2,91,58.2,91,57v-1h-1.1c-0.5,0-0.9,0.4-0.9,0.9c0,1-0.7,1.9-1.7,2.1C86,59.2,85,58.2,85,57v-1h-1.1
			c-0.5,0-0.9,0.4-0.9,0.9c0,1-0.7,1.9-1.7,2.1C80,59.2,79,58.2,79,57v-1h-1.1c-0.5,0-0.9,0.4-0.9,0.9c0,1-0.7,1.9-1.7,2.1
			C74,59.2,73,58.2,73,57v-1h-1.1c-0.5,0-0.9,0.4-0.9,0.9c0,1-0.7,1.9-1.7,2.1C68,59.2,67,58.2,67,57v-1h-1.1
			c-0.5,0-0.9,0.4-0.9,0.9c0,1-0.7,1.9-1.7,2.1C62,59.2,61,58.2,61,57v-1h-1.1c-0.5,0-0.9,0.4-0.9,0.9c0,1-0.7,1.9-1.7,2.1
			C56,59.2,55,58.2,55,57v-1h-1.1c-0.5,0-0.9,0.4-0.9,0.9c0,1-0.7,1.9-1.7,2.1C50,59.2,49,58.2,49,57v-2H101z M43,47h4v6v3.9
			c0,1-0.7,1.9-1.7,2.1C44,59.2,43,58.2,43,57V47z M39,59c-1.1,0-2-0.9-2-2V47h4v10C41,58.1,40.1,59,39,59z M38,113
			c-0.6,0-1-0.4-1-1s0.4-1,1-1h9v2H38z M49,113V69h22v44H49z M113,112c0,0.6-0.4,1-1,1H73v-2h39C112.6,111,113,111.4,113,112z
			 M73,109V69c0-1.1-0.9-2-2-2H49c-1.1,0-2,0.9-2,2v40h-4V60.4c0.6,0.4,1.3,0.6,2,0.6c1.2,0,2.3-0.5,3-1.4c0.7,0.8,1.8,1.4,3,1.4
			s2.3-0.5,3-1.4c0.7,0.8,1.8,1.4,3,1.4s2.3-0.5,3-1.4c0.7,0.8,1.8,1.4,3,1.4c1.2,0,2.3-0.5,3-1.4c0.7,0.8,1.8,1.4,3,1.4
			s2.3-0.5,3-1.4c0.7,0.8,1.8,1.4,3,1.4s2.3-0.5,3-1.4c0.7,0.8,1.8,1.4,3,1.4s2.3-0.5,3-1.4c0.7,0.8,1.8,1.4,3,1.4s2.3-0.5,3-1.4
			c0.7,0.8,1.8,1.4,3,1.4s2.3-0.5,3-1.4c0.7,0.8,1.8,1.4,3,1.4s2.3-0.5,3-1.4c0.7,0.8,1.8,1.4,3,1.4c0.7,0,1.4-0.2,2-0.6V109H73z"/>
	</g>
	<path class="st7" d="M66,47h18c0.6,0,1-0.4,1-1l0,0c0-0.6-0.4-1-1-1H66c-0.6,0-1,0.4-1,1l0,0C65,46.6,65.4,47,66,47z"/>
	<path class="st7" d="M66,51h18c0.6,0,1-0.4,1-1l0,0c0-0.6-0.4-1-1-1H66c-0.6,0-1,0.4-1,1l0,0C65,50.6,65.4,51,66,51z"/>
</g>
</svg>
