<?xml version="1.0" encoding="utf-8"?>
<!-- Generator: Adobe Illustrator 22.0.1, SVG Export Plug-In . SVG Version: 6.00 Build 0)  -->
<svg version="1.1" id="Слой_1" xmlns="http://www.w3.org/2000/svg" xmlns:xlink="http://www.w3.org/1999/xlink" x="0px" y="0px"
	 viewBox="0 0 150 150" style="enable-background:new 0 0 150 150;" xml:space="preserve">
<style type="text/css">
	.st0{fill:#6ECDBE;}
	.st1{fill:#872735;}
	.st2{fill:#F08058;}
	.st3{fill:#1DDD93;}
	.st4{fill:#FFFFFF;}
	.st5{fill:#EF4953;}
	.st6{fill:#303D4A;}
</style>
<g id="Слой_2_1_">
	<g id="Слой_1_2_">
		<circle class="st0" cx="75" cy="75" r="75"/>
	</g>
</g>
<g id="Слой_11">
	<path class="st1" d="M86.3,45.8l-3,4.3c0,0-1.2,5.7-4.9,8.2s-4.4,7.4-4.5,12.6s0,41.3,0,41.3s-0.3,1.7,5,1.8s21.3,0.4,21.3,0.4
		l1.8-2.3V65.6c0,0-1-4.8-4.6-6.9c-3.7-2.1-5.5-8.7-5.2-11.8C92.7,43.7,86.3,45.8,86.3,45.8z"/>
</g>
<g id="Слой_10">
	<rect x="83.4" y="35.9" class="st2" width="8.9" height="14.1"/>
</g>
<g id="Слой_9">
	<path class="st3" d="M83,74v25.7c0,0-9-2.6-9-12.3S83,74,83,74z"/>
</g>
<g id="Слой_8">
	<path class="st4" d="M93.1,74v26c0,0-4.4,2.4-10.1,0V74C83,74,88.8,71.9,93.1,74z"/>
</g>
<g id="Слой_6">
	<path class="st5" d="M47.9,78.9c0,0,3.8-1.8,9.4-0.9s6.5-1.3,9.3-0.3s3,1.5,3,1.5s-2,11.1-9.2,14l-1.6,1.6l-6.9-5.6
		c0,0-2.5-3.6-2.6-3.8S47.9,78.9,47.9,78.9z"/>
	<path class="st5" d="M93.1,74v26c0,0,8.1-2.3,9-13S93.1,74,93.1,74z"/>
</g>
<g id="Слой_7">
	<g>
		<path class="st6" d="M70.1,77.9L70.1,77.9C70,77.7,70,77.5,70,77.3l-1.4-12.2h-20l-1.4,12.2c0,0.2,0,0.3,0,0.5h-0.1l0.1,0.2
			c-0.4,5.3,1.9,10.5,6.1,13.9l4.4,3.6v12.2v0.1c-0.3,1.5-1.4,2.8-2.8,3.3l-1.8,0.7c-0.8,0.3-1.2,1.1-1,1.9s0.8,1.4,1.7,1.4h9.9
			c0.8,0,1.5-0.6,1.7-1.4s-0.3-1.6-1.1-1.9l-1.6-0.6c-1.6-0.6-2.7-1.9-3-3.5V95.5l4.4-3.6C68.3,88.6,70.6,83.3,70.1,77.9L70.1,77.9z
			 M50.3,67.1h16.4l1.2,10.1L67.3,77c-2-0.7-4.2-0.7-6.3,0c-1.6,0.6-3.4,0.6-5,0c-1-0.3-2-0.5-3-0.5c0-0.3,0-0.6,0.1-0.9l0.2-1.4
			c0.1-0.6-0.4-1.1-1-1.1c-0.5,0-1,0.4-1,0.9l-0.2,1.4C51,75.8,51,76.3,51,76.7c-0.4,0.1-0.8,0.2-1.2,0.3l-0.6,0.2L50.3,67.1z
			 M61.8,113l0.2,0.1h-6.8l0.3-0.1c1.3-0.5,2.4-1.4,3.1-2.5C59.3,111.6,60.4,112.5,61.8,113z M62.7,90.4l-4.2,3.4l-4.2-3.4
			C51,87.7,49,83.6,49,79.3l1.4-0.5c0.2-0.1,0.4-0.1,0.6-0.2c0.1,0.7,0.2,1.5,0.3,2.2c0.1,0.6,0.8,1,1.4,0.7l0,0
			c0.5-0.2,0.7-0.7,0.6-1.2c-0.2-0.7-0.2-1.3-0.3-2c0.8,0,1.6,0.1,2.3,0.4c2,0.7,4.2,0.7,6.3,0c1.6-0.6,3.4-0.6,5,0l1.4,0.5
			C68.1,83.6,66.1,87.7,62.7,90.4z"/>
		<path class="st6" d="M58.4,88.4C57,87.3,55.9,86,55,84.5c-0.3-0.5-0.9-0.6-1.4-0.3l0,0c-0.5,0.3-0.6,0.9-0.4,1.3
			c1,1.7,2.3,3.2,3.9,4.5l1,0.8c0.2-0.2,0.4-0.4,0.6-0.6c0.4-0.4,0.4-1.1-0.1-1.5L58.4,88.4z"/>
	</g>
</g>
<g id="Слой_5">
	<path class="st6" d="M98.3,58c-3-1.9-4.8-5.1-4.8-8.6V37H94c0.6,0,1-0.4,1-1s-0.4-1-1-1h-0.5h-11H82c-0.6,0-1,0.4-1,1s0.4,1,1,1
		h0.5v12.4c0,3.5-1.8,6.8-4.8,8.6S73,63.1,73,66.6V112c0,1.7,1.3,3,3,3h24c1.7,0,3-1.3,3-3V66.6C103,63.1,101.2,59.9,98.3,58z
		 M101,87c0,5-2.8,9.3-7,11.5v-23C98.2,77.7,101,82,101,87z M92,99.4c-1.3,0.4-2.6,0.6-4,0.6s-2.7-0.2-4-0.6V74.6
		c1.3-0.4,2.6-0.6,4-0.6s2.7,0.2,4,0.6V99.4z M82,98.5c-4.2-2.2-7-6.5-7-11.5s2.8-9.3,7-11.5V98.5z M101,112c0,0.6-0.4,1-1,1H76
		c-0.6,0-1-0.4-1-1v-2h16c0.6,0,1-0.4,1-1s-0.4-1-1-1H75V94.5c2.6,4.5,7.4,7.5,13,7.5s10.4-3,13-7.5V112z M88,72
		c-5.6,0-10.4,3-13,7.5V67h16c0.6,0,1-0.4,1-1s-0.4-1-1-1H75.2c0.4-2.2,1.7-4.1,3.6-5.3c3.1-2,5.1-5.1,5.6-8.7H88c0.6,0,1-0.4,1-1
		s-0.4-1-1-1h-3.5V37h7v12.4c0,4.2,2.1,8.1,5.7,10.3c2.4,1.5,3.8,4.1,3.8,6.9v12.9C98.4,75,93.6,72,88,72z"/>
</g>
</svg>
